<?xml version="1.0" standalone="no"?>
<!DOCTYPE svg PUBLIC "-//W3C//DTD SVG 1.1//EN" "http://www.w3.org/Graphics/SVG/1.1/DTD/svg11.dtd" >
<svg>
<metadata>
Created by FontForge 20110222 at Fri Jun 20 06:02:42 2014
 By deploy user
Copyright (c) 2014 by Whippet. All rights reserved.
</metadata>
<defs>
<font id="HOSTPLUSInsuranceIcons" horiz-adv-x="1790" >
  <font-face 
    font-family="HOSTPLUSInsuranceIcons"
    font-weight="400"
    font-stretch="normal"
    units-per-em="1000"
    panose-1="0 0 0 0 0 0 0 0 0 0"
    ascent="800"
    descent="-200"
    x-height="1415"
    cap-height="1070"
    bbox="0 -22.6667 3159 2129"
    underline-thickness="50"
    underline-position="-50"
    unicode-range="U+0020-007A"
  />
<missing-glyph 
 />
    <glyph glyph-name=".notdef" 
 />
    <glyph glyph-name=".null" horiz-adv-x="0" 
 />
    <glyph glyph-name="nonmarkingreturn" horiz-adv-x="333" 
 />
    <glyph glyph-name="R" unicode=" " 
 />
    <glyph glyph-name="A" unicode="A" horiz-adv-x="1801" 
d="M1678 820q0 -29 -25 -29q-26 0 -26 29q0 67 -49 116t-115 49q-69 0 -117 -49t-48 -116q0 -12 -8 -20.5t-17 -8.5q-13 0 -21 8t-8 21q0 67 -48 116t-116 49q-66 0 -113.5 -49t-47.5 -116q0 -13 -8.5 -21t-21.5 -8q-25 0 -25 29q0 67 -49 116t-115 49q-67 0 -116 -49
t-49 -116q0 -12 -7.5 -20.5t-17.5 -8.5q-13 0 -21.5 8t-8.5 21q0 67 -48 116t-116 49q-66 0 -113.5 -49t-47.5 -116q0 -13 -8 -21t-21 -8q-25 0 -25 29v0q0 159 59.5 303t161.5 249t243.5 170t298.5 71v29q0 10 7 18t18 8q12 0 21 -8t9 -18v-29q156 -6 296.5 -71t242 -170
t161 -249t59.5 -303zM855 740h64v-308v-135q0 -72 -52 -122.5t-125 -50.5t-125.5 50.5t-52.5 122.5q0 13 9 23.5t21 10.5q13 0 23.5 -11t10.5 -23q0 -47 33.5 -80.5t80.5 -33.5t80 33.5t33 80.5v135v308z" />
    <glyph glyph-name="B" unicode="B" horiz-adv-x="1826" 
d="M157 1487h1489v-1489h-1489v1489zM1292 263q97 0 132 60.5t-13 145.5l-393 678q-48 85 -118 85t-120 -85l-390 -678q-50 -85 -15 -145.5t134 -60.5h783zM977 635v305q0 29 -22.5 49.5t-55.5 20.5q-31 0 -53.5 -20.5t-22.5 -49.5v-305q0 -28 22.5 -49t53.5 -21
q33 0 55.5 20.5t22.5 49.5zM980 431q0 35 -23 58.5t-58 23.5t-58 -23.5t-23 -58.5t23 -59.5t58 -24.5t58 24.5t23 59.5z" />
    <glyph glyph-name="C" unicode="C" horiz-adv-x="1237" 
d="M1004 261h-783q-98 0 -133.5 60.5t14.5 145.5l390 678q50 85 120 85t118 -85l392 -678q47 -85 13 -145.5t-131 -60.5zM689 633v305q0 29 -22.5 49.5t-56.5 20.5q-31 0 -53.5 -20.5t-22.5 -49.5v-305q0 -28 22.5 -49t53.5 -21q33 0 56 20.5t23 49.5zM610 511
q-35 0 -58 -23.5t-23 -58.5t23 -59.5t58 -24.5t58.5 24.5t23.5 59.5t-23.5 58.5t-58.5 23.5z" />
    <glyph glyph-name="D" unicode="D" horiz-adv-x="1817" 
d="M1642 737q0 -151 -59 -288.5t-158.5 -237t-237 -158t-288.5 -58.5q-121 0 -234.5 37.5t-205 106t-161 159.5t-107 204.5t-37.5 234.5q0 202 100 374t271.5 272.5t373.5 100.5t373 -100.5t270.5 -272.5t99.5 -374zM1270 495l-227 227q122 124 235 234q47 48 40 125
q-6 67 -46 93q-49 30 -111 -34q-40 -36 -107.5 -102.5t-115.5 -115.5l-47 -48l-257 258q-51 40 -93 -8q-38 -43 -36 -112q2 -55 34 -87l204 -203l-238 -238q-22 -21 -32 -61.5t-2.5 -77.5t27 -62t62.5 -14t98 66l233 235l278 -274q54 -54 96 -6q36 41 35 114q0 59 -30 91z
" />
    <glyph glyph-name="E" unicode="E" horiz-adv-x="1801" 
d="M1645 737q0 -153 -59 -291t-158.5 -237.5t-237.5 -158.5t-291 -59q-201 0 -372.5 99.5t-272 271.5t-100.5 375q0 151 59.5 289.5t159.5 238.5t237.5 159.5t288.5 59.5q203 0 375 -100.5t271.5 -272.5t99.5 -374zM826 339l487 507q60 58 60 168q1 88 -34 127
q-33 39 -76 -9q-469 -566 -508 -570q-17 0 -52 36.5t-87 101.5t-73 89q-64 65 -100 1q-26 -47 -20 -114q2 -27 11 -39q69 -94 168 -206.5t137 -121.5q19 -6 44.5 3.5t42.5 26.5z" />
    <glyph glyph-name="F" unicode="F" horiz-adv-x="1887" 
d="M1472 1479q84 0 145 -60.5t61 -145.5v-1067q0 -85 -61 -145.5t-145 -60.5h-1071q-85 0 -145.5 60.5t-60.5 145.5v1067q0 85 60.5 145.5t145.5 60.5h1071zM1584 206v1067q0 47 -33 80t-79 33h-1071q-44 0 -76.5 -33.5t-32.5 -79.5v-1067q0 -46 32.5 -79.5t76.5 -33.5h1071
q46 0 79 33t33 80zM1273 739q0 32 -21 53t-53 21h-525q-30 0 -52 -21t-22 -53q0 -31 22 -52t52 -21h525q32 0 53 20.5t21 52.5z" />
    <glyph glyph-name="G" unicode="G" horiz-adv-x="1903" 
d="M1459 1479q85 0 145.5 -60.5t60.5 -145.5v-1067q0 -85 -60.5 -145.5t-145.5 -60.5h-1070q-85 0 -146 60.5t-61 145.5v1067q0 85 61 145.5t146 60.5h1070zM1572 206v1067q0 47 -33 80t-80 33h-1070q-44 0 -76.5 -33.5t-32.5 -79.5v-1067q0 -46 32.5 -79.5t76.5 -33.5h1070
q47 0 80 33.5t33 79.5zM1260 739q0 32 -22 55t-52 23h-186v183q0 32 -23 55t-55 23q-30 0 -52 -23t-22 -55v-183h-187q-32 0 -55 -23t-23 -55q0 -31 22.5 -52t55.5 -21h187v-187q0 -32 22 -53t52 -21q33 0 55.5 21t22.5 53v187h186q30 0 52 21t22 52z" />
    <glyph glyph-name="H" unicode="H" horiz-adv-x="1601" 
d="M1283 409q-29 0 -55 24l-442 445l-444 -445q-24 -23 -56.5 -23t-56.5 23q-24 24 -24 56.5t24 56.5l500 500q23 24 56 24t57 -24l499 -500q24 -24 24 -56.5t-24 -56.5t-58 -24z" />
    <glyph glyph-name="I" unicode="I" horiz-adv-x="1437" 
d="M194 1069q33 0 56 -23l445 -445l441 445q24 24 57 24t56 -24q24 -23 24 -56.5t-24 -56.5l-499 -500q-24 -23 -57 -23t-56 23l-500 500q-23 23 -23 56.5t23 56.5t57 23z" />
    <glyph glyph-name="J" unicode="J" horiz-adv-x="1717" 
d="M106 1489h1489v-1489h-1489v1489zM1165 427q127 126 197.5 293.5t69.5 347.5q-1 35 -18 73.5t-40.5 68.5t-46.5 55t-39 39l-17 13q-30 22 -58 -9l-207 -297q-8 -12 -5 -30.5t15 -29.5l117 -119q10 -11 10 -28t-10 -30l-155 -155l-157 -157q-13 -12 -30.5 -12t-27.5 12
l-120 119q-13 11 -30 13t-31 -7l-300 -208q-12 -9 -14 -26t8 -31q5 -6 14.5 -16.5t38 -38t56.5 -48t66.5 -38t72.5 -18.5q181 -4 347 66.5t294 197.5z" />
    <glyph glyph-name="K" unicode="K" horiz-adv-x="1417" 
d="M110 322q-12 14 -10 31t16 26l299 208q13 9 30 7t31 -13l119 -119q11 -12 28 -12t30 12l158 157l153 155q12 13 12 30t-12 28l-118 119q-11 11 -13 29.5t7 30.5l207 297q10 14 25.5 17t31.5 -8q6 -5 16.5 -14t37.5 -37.5t48 -56.5t38.5 -67t19.5 -74q2 -180 -69 -347.5
t-199 -293.5q-127 -127 -293 -197.5t-347 -66.5q-34 1 -72 17.5t-67.5 40t-54.5 46.5t-38 39z" />
    <glyph glyph-name="L" unicode="L" horiz-adv-x="1818" 
d="M156 1489h1490v-1489h-1490v1489zM675 347q153 0 263 81.5t110 196.5q0 114 -110 195.5t-263 81.5q-155 0 -264 -81.5t-109 -195.5q0 -62 35.5 -117t98.5 -94l-12 -73q-2 -19 8 -26t27 1l79 51q68 -20 137 -20zM1344 488q73 55 113.5 129.5t40.5 156.5q0 81 -41 155
t-111 127.5t-166 85t-202 31.5q-160 0 -289 -66.5t-192 -175.5q88 32 184 32q178 0 306 -99.5t128 -238.5q0 -148 -143 -249h6q128 0 233 39l130 -86q17 -11 26.5 -5.5t5.5 24.5z" />
    <glyph glyph-name="M" unicode="M" horiz-adv-x="1554" 
d="M1368 774q0 -82 -40.5 -156.5t-113.5 -129.5l29 -140q4 -19 -5.5 -24.5t-26.5 5.5l-131 86q-105 -39 -232 -39h-7q143 98 143 249q0 140 -127 239t-306 99q-95 0 -183 -32q59 108 189.5 175t290.5 67q106 0 202 -31.5t166 -85t111 -127.5t41 -155zM545 902
q153 0 262.5 -81.5t109.5 -195.5q0 -115 -109.5 -196.5t-262.5 -81.5q-69 0 -137 20l-78 -51q-18 -8 -27.5 -1t-7.5 26l11 73q-64 39 -99 93.5t-35 117.5q0 114 109 195.5t264 81.5z" />
    <glyph glyph-name="N" unicode="N" horiz-adv-x="2082" 
d="M1607 809l-104 -108q0 -165 -81.5 -303.5t-220.5 -218.5t-304 -80q-164 0 -303.5 81.5t-221.5 222.5t-82 308q0 163 82 303t222 221.5t303 81.5q221 0 390 -143q16 15 42.5 43t35.5 37q-202 172 -468 172q-146 0 -279 -56.5t-229.5 -152t-154 -228t-57.5 -278.5
q0 -147 57.5 -280.5t154 -229.5t229.5 -152.5t279 -56.5t279 56.5t229.5 152.5t154 229.5t57.5 280.5q0 32 -10 98zM987 318q-21 -19 -54.5 -31t-60.5 -6q-48 17 -171.5 156t-231.5 274q-22 35 -12 116q12 95 57 122q44 26 106 -36q27 -30 92.5 -115t110.5 -132t70 -45
q22 0 221.5 205.5t387.5 410.5l188 205q62 69 108 25q42 -39 43 -131q1 -115 -66 -192q-7 -8 -14 -15z" />
    <glyph glyph-name="O" unicode="O" horiz-adv-x="1859" 
d="M911 1491q204 0 377 -101.5t273 -275t100 -378.5q0 -203 -100 -375t-273 -272.5t-377 -100.5q-152 0 -291 59.5t-240 159.5t-161 238.5t-60 290.5q0 153 60 293t161 241t240 161t291 60zM930 250q-40 27 0 95l115 313q59 104 22 198q-42 65 -120 83q-17 3 -53 3
q-111 0 -195 -67q-12 -11 -3 -28q2 -9 10.5 -12.5t16.5 1.5q37 11 68 11q20 0 25 -8q41 -20 0 -95l-117 -315q-26 -50 -30.5 -100.5t14.5 -90.5q39 -71 119 -84q37 -8 54 -8q52 0 99 17t68.5 33t21.5 20q9 6 11 15t-2 11q-12 18 -26 13q-36 -13 -69 -13q-21 0 -29 8z
M1028 1021q60 0 104 43.5t44 103.5q0 64 -43 107.5t-105 43.5t-106 -43.5t-44 -107.5q0 -59 44.5 -103t105.5 -44z" />
    <glyph glyph-name="P" unicode="P" horiz-adv-x="1747" 
d="M1291 47l-440 446l-380 -384q-87 -89 -154.5 -106.5t-98 23.5t-42 101.5t4 126.5t48.5 99l379 380l-323 328q-63 63 -53 175q9 96 62 151q60 63 130 15l10 -8l417 -416q290 289 430 434q99 96 177 50q59 -34 76 -125q19 -104 -32 -186q-13 -21 -30 -38l-377 -380
l362 -364q57 -55 51 -165q-5 -102 -55 -162q-59 -69 -136 -17q-13 9 -26 22z" />
    <glyph glyph-name="Q" unicode="Q" horiz-adv-x="2072" 
d="M683 -20q-59 22 -227 210t-265 322q-26 34 -17 125q10 108 58 152q58 52 142 -33q41 -43 117.5 -142t131.5 -161t82 -59q31 3 278 257.5t479 507.5l232 253q73 79 129 32q49 -42 55 -145q8 -128 -57 -225q-18 -27 -40 -48l-955 -996q-24 -26 -65 -42t-78 -8z" />
    <glyph glyph-name="a" unicode="a" horiz-adv-x="1494" 
d="M1007 1133v270q0 34 23.5 57.5t57.5 23.5q28 0 50 -24t22 -57v-270q0 -27 -22.5 -49.5t-49.5 -22.5q-33 0 -57 22t-24 50zM1403 1115v-962q0 -67 -41.5 -110t-102.5 -43h-1052q-61 0 -102.5 43t-41.5 110v962q0 62 42 107.5t102 45.5h45v-135q0 -48 41 -87t94 -39
q47 0 86.5 39.5t39.5 86.5v135h449v-135q0 -51 34 -88.5t92 -37.5q52 0 89 38.5t37 87.5v135h45q60 0 102 -45.5t42 -107.5zM1259 153v647h-1052v-647h1052zM387 1061q-33 0 -57 22t-24 50v270q0 34 23.5 57.5t57.5 23.5q33 0 52.5 -23t19.5 -58v-270q0 -29 -20 -50.5
t-52 -21.5zM441 692v-170h-171v170h171zM441 414v-162h-171v162h171zM693 692v-170h-171v170h171zM693 414v-162h-171v162h171zM944 692v-170h-171v170h171zM944 414v-162h-171v162h171zM1187 692v-170h-162v170h162zM1187 414v-162h-162v162h162z" />
    <glyph glyph-name="b" unicode="b" horiz-adv-x="2154" 
d="M79 740l889 785q30 46 90 46q84 0 114 -46l889 -785h-250v-741h-593v501h-308v-501h-581v741h-250z" />
    <glyph glyph-name="c" unicode="c" horiz-adv-x="1341" 
d="M774 746v225h224v-225h-224zM837 917v-117h107v117h-107zM324 917v-117h333v117h-333zM774 594v-216h224v216h-224zM324 540v-117h333v117h-333zM1115 1376q47 0 77.5 -29t30.5 -70v-1178q0 -41 -30.5 -70t-77.5 -29h-908q-47 0 -77.5 29t-30.5 70v1178q0 41 30.5 70
t77.5 29h270v54q0 54 54 54h270q44 0 44 -54v-54h270zM576 1376v-99h171v99h-171zM1115 1007v270h-270v-54q0 -54 -44 -54h-270q-54 0 -54 54v54h-270v-1178h908v908z" />
    <glyph glyph-name="d" unicode="d" horiz-adv-x="1339" 
d="M1186 1017q65 0 108.5 -45t43.5 -106v-715q0 -67 -42.5 -109t-109.5 -42h-1025q-68 0 -114.5 42.5t-46.5 108.5v715q0 61 47 106t114 45h1025zM1240 151v580h-1142v-580q0 -20 18.5 -36.5t44.5 -16.5h1025q20 0 37 16.5t17 36.5zM588 634v-322h-374v322h374zM482 411v115
h-170v-115h170zM1124 526v108h-411v-108h411zM999 357v98h-286v-98h286z" />
    <glyph glyph-name="e" unicode="e" horiz-adv-x="1339" 
d="M1125 925h126v-646q0 -115 -82 -197t-197 -82h-116h-369h-125q-115 0 -197 82t-82 197v646h117v99q0 190 136 324t331 134v0q194 0 326 -133.5t132 -324.5v-99zM703 629q36 0 54 -9t54 -9q0 5 4.5 14t4.5 13q4 4 6 8.5t2 7.5l1 2v18l-9 9q0 4 -2.5 6.5t-7.5 5.5t-8 6
q-18 0 -27 9q-5 0 -18 4.5t-18 4.5q-9 0 -18 9v45v27q-9 9 -27 9h-36q-4 -4 -8.5 -6.5t-7.5 -2.5h-2q-9 -9 -9 -18l-9 -9l9 -54q-18 0 -54 -18q-8 0 -19 -7.5t-17 -19.5q-9 -9 -27 -45t-18 -63t18 -63q4 -9 18 -22.5t18 -22.5l54 -27q18 0 54 -18q4 -5 18 -14t18 -13
q18 -18 18 -27q0 -27 -18 -45q-2 0 -20 -4.5t-34 -4.5q-36 0 -63 9q-12 0 -21 2t-21.5 7.5t-20.5 8.5q-3 -7 -6 -15t-5.5 -12.5t-6.5 -8.5v-17v-18q4 0 6 -2.5t2 -4.5l1 -2q4 0 8.5 -2t6.5 -4l3 -3q18 -18 27 -18q4 0 18 -4.5t18 -4.5q10 0 21.5 -4.5t14.5 -4.5v-90l99 9v90
q8 0 14 2t16.5 8t14.5 8q9 4 22.5 13t22.5 14q0 10 18 44q9 9 9 63q0 45 -18 63q-18 36 -36 45q-10 10 -26 21.5t-19 14.5q-9 4 -27 9t-27 9q-5 2 -12 6t-11 6.5t-10 4t-12 1.5q-9 9 -9 36t9 27q36 18 63 18zM388 925h549v99q0 116 -78 197.5t-192 81.5q-110 0 -194.5 -83
t-84.5 -196v-99z" />
    <glyph glyph-name="f" unicode="f" horiz-adv-x="2647" 
d="M556 416q86 0 148.5 -60t62.5 -144q0 -90 -62 -151t-149 -61q-86 0 -145 60.5t-59 151.5q0 85 59.5 144.5t144.5 59.5zM556 115q37 0 64 28t27 69q0 35 -27.5 62.5t-63.5 27.5t-60 -27t-24 -63q0 -42 23.5 -69.5t60.5 -27.5zM2043 470q-63 0 -119 -26t-92 -71
q-56 -78 -56 -155h-233h-126h-392h-204q0 106 -77.5 179t-187.5 73q-108 0 -184 -72.5t-80 -179.5h-121q-4 0 -10 1t-21.5 8t-27.5 18.5t-21.5 35.5t-9.5 56v168l283 146h661v422q0 23 18 37.5t36 17.5l18 3h409q45 0 86 -16.5t60 -32.5l18 -16l240 -278q43 -7 109.5 -19.5
t193 -44t160.5 -55.5q16 -21 27 -80t14 -107l2 -49h-169q-61 0 -72 6q-62 31 -132 31zM2343 626q-2 5 -20.5 6.5t-35.5 0.5l-17 -1l32 -162h65q4 8 -7.5 80t-16.5 76zM1670 788q52 0 63 17t-10 49l-121 163q-19 20 -49.5 31t-52.5 11h-263q-17 0 -30 -14t-13 -28v-186
q0 -18 12.5 -30.5t30.5 -12.5h433zM2380 218h-72q0 39 -17 81t-44 74h198q17 -61 -7.5 -105.5t-57.5 -49.5zM2043 416q86 0 148 -60t62 -144q0 -90 -61.5 -151t-148.5 -61t-149 61t-62 151q0 84 62 144t149 60zM2043 109q39 0 67.5 30.5t28.5 72.5q0 36 -28.5 65.5
t-67.5 29.5t-67.5 -29.5t-28.5 -65.5q0 -42 28 -72.5t68 -30.5zM1375 1179h-181v49q0 35 25 35h131q9 0 17 -10.5t8 -24.5v-49zM81 795q-8 13 -3 24.5t14 11.5q33 10 44 -19q5 -29 46 -42h7q24 0 42 13.5t18 35.5v12q0 19 -13.5 37.5t-34.5 23.5q-5 0 -12 3.5t-7 7.5
q-10 13 -5 18q0 18 5 35q-18 23 -11 43q0 31 6 42v18v7h5v0v7v5v0v0v5q0 5 1 5.5t6 0.5v0v0h7v6h5v6v0h7h6v0v0l41 248q-6 0 -6 10q-19 28 -16.5 60t28.5 50q31 17 58 11.5t45 -20.5l18 -16q102 -129 487 -571q54 -22 87.5 -67.5t33.5 -95.5h-367h-73h-186v127h246
q-29 44 -156.5 224.5t-167.5 244.5l-37 -205q3 0 4.5 -1.5t3.5 -5t4 -5.5q12 -10 12 -30v-6v0v-6q0 -30 -12 -59q0 -27 -24 -37v-12q33 -14 53.5 -43.5t20.5 -64.5v-19q-6 -44 -41.5 -73t-80.5 -29h-18q-31 5 -56.5 29t-33.5 56z" />
    <glyph glyph-name="g" unicode="g" horiz-adv-x="2643" 
d="M2515 553q15 -25 27.5 -87.5t8.5 -104.5q4 -59 -18.5 -100t-53.5 -51h-120q-7 59 -30 127h-6l-6 6q0 4 -9.5 19t-31.5 36t-49 35q-63 36 -132 36q-128 0 -205 -96q-7 -3 -13 -14t-11 -16h-36l18 -30q-17 -68 -18 -73l-72 103h-66l90 -133h-72l-90 133h-66l90 -133h-72
l-90 133h-73l91 -133h-67l-90 133h-72l90 -133h-66l-90 133h-72l90 -133h-72l-90 133h-66l90 -133h-72l-48 79q-23 77 -95.5 128.5t-157.5 51.5q-71 0 -131.5 -33.5t-96.5 -92.5h-54l36 -42q-18 -38 -18 -79l-84 121h-73l97 -133h-73l-96 133h-66l90 -133h-60q-6 0 -12 6
l-78 115v6v102v150q-12 48 18 72q24 30 118 153.5t110 147.5q11 13 31 22t34 12l14 2h871h313q48 0 90 -16.5t60 -33.5l18 -16l204 -265q53 -7 132.5 -18.5t228 -41.5t180.5 -54zM947 691v187q0 18 -12 30t-31 12h-486q-14 0 -25 -12.5t-11 -29.5v-187q0 -17 11 -29.5
t25 -12.5h486q19 0 31 12t12 30zM1373 691v187q0 17 -13.5 29.5t-28.5 12.5h-96q-18 0 -30 -12t-12 -30v-187q0 -18 12 -30t30 -12h96q15 0 28.5 12.5t13.5 29.5zM1770 649q52 0 63 17.5t-9 48.5l-120 163q-20 20 -50 31t-52 11h-139q-18 0 -30 -12t-12 -30v-187
q0 -18 12 -30t30 -12h307zM2491 361q5 5 -0.5 68.5t-17.5 87.5h-66l12 -156h72zM712 415q86 0 145 -59.5t59 -145.5q0 -90 -59 -150t-145 -60t-145 60t-59 150q0 86 59 145.5t145 59.5zM712 120q37 0 63.5 25.5t26.5 64.5q0 36 -27 60.5t-63 24.5q-40 0 -65 -24t-25 -61
q0 -40 25 -65t65 -25zM1097 1040h-181v48q0 17 7.5 26.5t17.5 9.5h132q10 0 17 -9.5t7 -26.5v-48zM2095 415q86 0 148 -59.5t62 -145.5q0 -89 -61.5 -149.5t-148.5 -60.5t-146 60t-59 150q0 86 59.5 145.5t145.5 59.5zM2095 108q41 0 68.5 28.5t27.5 73.5q0 37 -28.5 67
t-67.5 30q-40 0 -71.5 -30.5t-31.5 -66.5q0 -44 30.5 -73t72.5 -29z" />
    <glyph glyph-name="h" unicode="h" horiz-adv-x="1626" 
d="M816 1485q150 0 287 -59t236.5 -158.5t158 -237.5t58.5 -290q0 -151 -58.5 -288.5t-158 -237.5t-236.5 -159t-287 -59q-151 0 -289 59t-238 159t-159 237.5t-59 288.5q0 152 59 290t159 237.5t238 158.5t289 59zM1236 249q223 225 223 491v5q0 148 -71 280
q-76 167 -226.5 263.5t-345.5 99.5q-5 0 -10 -94.5t-7.5 -239.5t1.5 -318h3q11 -12 60 -66.5t110.5 -124t121.5 -137.5t100.5 -114t40.5 -45zM925 900l4 -39h38q15 0 24 -7q8 -4 16 -12q4 -8 4 -20q0 -22 -20 -35q-11 -11 -39 -11h-23q-12 0 -20 3q-4 0 -9 2t-7 2h-12
q0 -12 -7 -19v-12v-7l4 -5q4 -10 31 -15q32 -8 58 -8q21 0 51 8q25 5 39 20q19 12 24 27q8 22 8 38q0 45 -21 59q-23 23 -61 23q31 5 54 28q16 17 16 43q0 23 -9 34q0 17 -15 24q-17 11 -31 16h-36h-34q-32 -8 -35 -8q-2 -1 -8.5 -6.5t-11.5 -5.5q-9 -7 -12 -7q-4 -4 -4 -13
q0 -7 4 -15q3 -3 5.5 -6.5t3.5 -4.5t3 -1q3 0 5 -2t4 -2q1 0 3 2t4 2q8 0 12 4q8 4 19 4q8 4 19 4q12 0 28 -8q8 -8 8 -23q0 -33 -74 -51zM1116 877q0 -85 30 -121q35 -39 90 -39q25 0 55 8q11 5 39 31q17 28 24 47q7 23 7 74q0 85 -31 120q-34 40 -94 40q-54 0 -90 -40
q-30 -43 -30 -120zM1194 877q0 34 4 51q0 17 7 31q6 10 16 15q3 4 15 4q16 0 20 -4q1 -1 3.5 -3t4 -3.5t3 -4t1.5 -4.5q11 -11 11 -31q0 -8 2 -24.5t2 -26.5t-2 -26.5t-2 -24.5q0 -20 -11 -31q0 -4 -12 -16q-4 -3 -20 -3q-12 0 -15 3q-11 5 -16 16q-7 14 -7 31q-4 16 -4 51z
" />
    <glyph glyph-name="i" unicode="i" horiz-adv-x="3242" 
d="M2252 1144l-209 -305l-61 42l152 222l-257 -70q-10 -6 -16 -4.5t-12 11.5q-9 0 -14.5 7t-5.5 14l-8 278l-165 -216q-19 -14 -35 -14q-3 0 -7 2t-9.5 6t-11.5 6l-166 216l-7 -278q0 -6 -4 -13.5t-10 -7.5q-8 -20 -34 -7l-256 70l151 -222l-62 -42l-208 305q-8 29 0 48
q26 15 42 8l311 -83l14 318q0 22 22 35q20 9 41 -14l194 -256l200 256q6 10 19 14.5t23 -0.5q28 -16 28 -35l7 -318l312 83q16 7 42 -8q8 -19 0 -48zM1164 354q55 -55 55 -145q0 -84 -60.5 -146t-147.5 -62q-83 0 -145 62q-63 61 -63 146q0 88 60 147.5t148 59.5
q91 0 153 -62zM1011 104q46 0 75.5 31t29.5 74q0 20 -8.5 42.5t-19.5 33.5q-28 28 -77 28q-47 0 -75.5 -28.5t-28.5 -75.5q0 -33 28 -77q40 -28 76 -28zM1475 632l-111 -49l8 264l-181 -209l-35 181l-145 -56l-34 28l-340 298q-103 103 -263 103h-277v-983h602q0 130 91 221
t221 91q143 0 222 -91q90 -88 90 -221l152 34v389zM2238 416q88 0 148 -59.5t60 -147.5q0 -83 -63 -146q-27 -27 -66 -44.5t-79 -17.5q-83 0 -146 62.5t-63 145.5q0 85 64 145q50 62 145 62zM2313 132q28 28 28 77q0 45 -30.5 74.5t-72.5 29.5q-49 0 -77 -28
q-11 -11 -19 -33t-8 -43q0 -42 31 -73.5t73 -31.5q35 0 75 28zM3159 1192h-284q-75 0 -143 -26.5t-113 -76.5l-340 -298l-41 -28l-145 56l-36 -181l-173 209v-264l-103 49v-389l145 -34q0 136 97 221q81 91 215 91q130 0 220.5 -91t90.5 -221h610v983z" />
    <glyph glyph-name="j" unicode="j" horiz-adv-x="2934" 
d="M469 734l890 790q47 45 102 45q7 0 14 -1t15.5 -4.5t13.5 -5.5t15.5 -7.5t14 -7.5t15.5 -9.5t15 -9.5l868 -790h-236v-734h-587v496h-305v-496h-587v734h-248zM2241 699h349l-678 599l114 102q4 0 29.5 5t37.5 5q20 0 48 -5t31 -5l677 -610h-191v-554h-417v463zM321 699
h351v-463h-408v554h-191l666 610q10 0 35 5t43 5q11 0 36 -5t43 -5l114 -102z" />
    <glyph glyph-name="k" unicode="k" horiz-adv-x="2231" 
d="M1831 926l208 -187h-246v-738h-592v492h-301v-492h-585v738h-252l887 789q47 38 104 38q43 0 87 -28l-10 -54q-54 -323 98 -498q62 -70 148.5 -109t184.5 -39q155 0 269 88zM1787 1938q-37 66 -1 123.5t83 67.5q-28 -88 -16 -136q32 -83 -12 -115q-9 4 -27.5 24.5
t-26.5 35.5zM2126 1429q-23 -9 -42.5 -20t-35 -20.5t-30.5 -25t-24.5 -25t-21 -29t-17 -28t-15.5 -32t-13 -31.5t-13 -34.5t-13 -33.5q-42 -120 -166 -182q-124 -63 -258 -34q-146 31 -218 160q-81 144 -41 373l6 -6t16.5 -15t24 -19.5t29 -19.5t30.5 -15t28.5 -7t24.5 6
q24 15 27 39.5t-9 51.5t-26 61t-24 66.5t-2 71t39 71.5q9 9 28.5 22t57.5 24t72 3q-9 -17 -16 -45t-9 -61.5t15.5 -61t53.5 -35.5q38 -7 58.5 14t20 53.5t-6.5 64.5v16q0 1 -14 31t-24 46q-14 30 -11 61.5t18 65.5t31.5 60.5t30 45t13.5 19.5q-13 -84 25 -148t156 -153
q32 -22 48.5 -57t17.5 -70t-5.5 -74.5t-16 -67.5t-19.5 -52l-9 -24h4q36 23 72 31.5t62.5 4t47.5 -12t32 -15.5z" />
    <glyph glyph-name="l" unicode="l" horiz-adv-x="1486" 
d="M964 1088v209q0 38 -25 63t-59 25q-40 0 -64 -24.5t-24 -63.5v-209h172zM743 1405v-317h-172v317q0 35 25.5 59.5t59.5 24.5q38 0 62.5 -24t24.5 -60zM523 1297v-209h-170v209q0 39 24.5 63.5t60.5 24.5q34 0 59.5 -25t25.5 -63zM1181 1212v-124h-169v124q0 33 25.5 59
t59.5 26q35 0 59.5 -25.5t24.5 -59.5zM518 610v-220h667v-121q0 -111 -87 -190t-210 -79h-261q-121 0 -209 79t-88 190v341q0 36 29 64.5t68 28.5q38 0 64.5 -28t26.5 -65zM1418 1027h-1353v-569h212v172q0 53 46.5 92.5t103.5 39.5q58 0 101 -39t43 -93v-172h847v569z
M892 674q0 -12 -8 -44q-10 -17 -16 -24q-8 -15 -24 -15q-4 -4 -9 -6t-12.5 -4t-10.5 -3v-57l-61 -4v57q-4 0 -12 2t-12 2q-8 4 -20 4q-3 2 -7.5 4t-7 3.5t-4.5 1.5l-13 7l-4 8q-4 4 -4 9q0 2 2 6.5t2 8.5q2 2 4.5 9t4.5 11q6 -2 20 -6t23 -6q12 -5 41 -5q14 0 32 9
q12 12 12 25q0 11 -12 24q-3 2 -12 7.5t-13 7.5q-6 2 -32 13q-24 8 -32 16q-14 9 -23 27q-13 19 -13 45q0 18 9 40q2 5 5 10t7 10t6 8q9 8 25 16q24 8 28 8v36q0 8 5 8q0 4 1 6t2 2h1q1 1 15 9h21q12 0 16 -4v-13v-40q7 -4 15 -4q17 0 21 -4q3 -2 10.5 -4t9.5 -4q2 0 6 -2
t6 -2v-8q4 0 4 -9q0 -2 -2 -7t-2 -7q0 -5 -8 -21q-4 2 -17 4t-19 4q-9 4 -36 4q-26 0 -32 -8q-12 -6 -12 -20t12 -20q3 -10 24 -16q5 -3 31 -12q20 -7 32 -20q16 -14 25 -28q12 -19 12 -45z" />
    <glyph glyph-name="m" unicode="m" horiz-adv-x="1517" 
d="M1067 1128v-708h-638v103h34v108h-34v283h34v109h-34v105h638zM899 779q0 49 -32 97l-99 -103l92 -93q39 44 39 99zM846 892q-41 38 -98 38q-62 0 -100 -38l100 -99zM632 680l95 93l-99 103q-32 -48 -32 -97q0 -60 36 -99zM654 660q32 -32 94 -32q60 0 92 32l-92 96z
M1186 1249q23 -23 23 -52v-851q0 -26 -23 -49q-26 -24 -49 -24h-113q0 -25 -19.5 -44t-44.5 -19q-28 0 -46.5 18.5t-18.5 44.5h-297q0 -26 -18.5 -44.5t-43.5 -18.5q-28 0 -46 18.5t-18 44.5h-116q-26 0 -50 24q-20 20 -20 49v851q0 32 20 52q21 17 50 17h781q26 0 49 -17z
M1101 382v780h-711v-139h-34v-109h34v-283h-34v-108h34v-141h711z" />
    <glyph glyph-name="n" unicode="n" horiz-adv-x="1621" 
d="M719 660l94 96l92 -96q-32 -32 -92 -32q-62 0 -94 32zM833 773l99 103q31 -46 31 -97q0 -57 -37 -99zM912 892l-99 -99l-99 99q37 38 99 38q57 0 99 -38zM693 876l99 -103l-96 -93q-35 40 -35 99q0 49 32 97zM456 1023v139h711v-780h-711v141h-35v108h35v283h-35v109h35z
M494 523v-103h637v708h-637v-105h33v-109h-33v-283h33v-108h-33zM69 1485h1486v-1487h-1486v1487zM1273 346v851q0 30 -22 52q-21 17 -49 17h-781q-30 0 -50 -17q-20 -20 -20 -52v-851q0 -29 20 -49q22 -24 50 -24h115q0 -26 18 -44.5t46 -18.5q26 0 45 18.5t19 44.5h297
q0 -26 17.5 -44.5t44.5 -18.5t46 18.5t19 44.5h114q25 0 49 24q22 22 22 49z" />
    <glyph glyph-name="o" unicode="o" horiz-adv-x="1083" 
d="M532 928h-8v56q-71 25 -106 88q-31 47 -31 113q0 77 36.5 137.5t100.5 92.5v-194l124 -75l120 75v194q62 -32 100 -93.5t38 -136.5q0 -56 -32 -113q-34 -61 -106 -88v-74q-126 18 -236 18zM521 132v64q118 0 247 14v-78q0 -53 -35 -90t-85 -37q-53 0 -89 34.5t-38 85.5v7
zM910 538q27 -5 43 -26.5t13 -50.5q0 -26 -16.5 -48.5t-43.5 -25.5q-1 0 -7.5 -2t-9.5 -2q45 -18 45 -63q-2 -28 -20 -46.5t-47 -21.5q-24 -2 -111 -10t-143 -11.5t-114 -3.5q-28 0 -60.5 10t-48.5 18t-57 29q-40 23 -68 36.5t-73.5 25.5t-91.5 12q-14 0 -14 11v343
q0 11 14 11q40 0 72 7t59.5 24t41 28.5t39.5 35.5q29 29 67 56q53 25 153 25q155 0 371 -42q28 -6 45.5 -24.5t17.5 -46.5q3 -28 -11 -53t-42 -35h-7q12 -7 18 -7q56 -11 56 -68q0 -26 -14.5 -49t-41.5 -28q-18 0 -32 -4q4 0 10 -2t8 -2z" />
    <glyph glyph-name="p" unicode="p" horiz-adv-x="1799" 
d="M1361 658q110 0 185.5 -75t75.5 -183q0 -110 -75.5 -185.5t-185.5 -75.5q-108 0 -182.5 75.5t-74.5 185.5q0 107 75 182.5t182 75.5zM1524 274q4 3 4 9.5t-4 6.5l-85 61q-17 8 -17 0l-36 -36q-9 -9 -17 0l-90 89q-10 12 0 17l33 32q4 9 4 21l-61 86q-10 10 -17 0
q-44 -33 -44 -70q-4 -51 16 -100.5t57 -83.5q77 -77 188 -77q16 0 33.5 11.5t26.5 22.5zM1349 490q0 -16 12 -16q31 0 54.5 -22t23.5 -52q0 -6 5 -11t11 -5q8 0 8 16q0 41 -29 71.5t-73 30.5q-12 0 -12 -12zM1545 384q8 0 8 16q0 80 -56 136t-136 56q-12 0 -12 -12t12 -12
q70 0 119 -50t49 -118q0 -6 5 -11t11 -5zM1676 0h-1590q-2 7 -4 20t3.5 55.5t25.5 87.5q14 29 46.5 56.5t81 52t91.5 43t104.5 43t93.5 38.5q41 17 68.5 33.5t41 28.5t20.5 28.5t8 25.5t1 28v7q-5 16 -48.5 70.5t-66.5 109.5q-38 98 -47 141q-24 119 6 325q2 7 6.5 23.5
t6.5 21.5q31 108 126 184q101 69 233 69q60 0 122.5 -18t106.5 -51q95 -76 126 -184q13 -25 13 -45q12 -82 15 -148t2 -106t-13 -84.5t-19 -64t-26 -63.5q-9 -24 -22 -47.5t-23 -37t-25 -32.5t-20 -26l-4 -4q-2 0 -3 -2t-2 -5t-3 -5q-49 -76 -49 -168q0 -128 88 -217
t214 -89q75 0 139.5 33t105.5 90q26 -21 45 -54q20 -45 26.5 -86t2.5 -59z" />
    <glyph glyph-name="q" unicode="q" horiz-adv-x="1781" 
d="M878 1499q137 0 232 -70q97 -74 127 -180q1 -5 6.5 -21.5t7.5 -26.5q13 -95 16 -165t-5 -121t-17.5 -82t-27.5 -76q-6 -15 -9 -22q-23 -56 -66.5 -113t-48.5 -68q0 -45 10 -64q24 -46 131 -91q31 -14 94 -39t105.5 -43t91.5 -42.5t81 -51.5t46 -55q21 -48 27.5 -90
t2.5 -60l-5 -18h-1600q-2 7 -3.5 20t5 56.5t26.5 91.5q12 28 44 55t81 51.5t93.5 43t105.5 43t93 38.5q52 23 83 44.5t41 39t13 36t-1 35.5q-3 17 -45.5 72.5t-64.5 108.5q-39 97 -48 139q-24 117 9 327q0 21 9 48q36 114 127 180q44 34 107 52t126 18z" />
    <glyph glyph-name="r" unicode="r" horiz-adv-x="2648" 
d="M565 419q96 0 148 -62q63 -60 63 -143q0 -89 -61 -150.5t-150 -61.5q-81 0 -144 61q-69 71 -69 151q0 9 13 50q13 69 69 112t131 43zM565 107q42 0 73 32t31 75q0 37 -31 74q-27 32 -73 32q-32 0 -59 -21t-41 -54q-7 -7 -7 -31q0 -31 32 -75q40 -32 75 -32zM2401 582
l113 55v-392l-150 -31q0 59 -25 117t-68 101q-85 94 -218 94q-131 0 -222 -90.5t-91 -221.5h-864q0 61 -24 119t-69 99q-84 94 -218 94q-125 0 -218 -94q-66 -66 -88 -151l-69 7q-32 4 -60.5 32.5t-32.5 60.5l-36 206q-11 32 5.5 65.5t50.5 46.5l261 119l143 243
q36 66 88.5 101t135.5 35h666q148 0 262 -105l343 -304l37 -20l143 50l37 -181l168 212v-267zM503 812h559v274h-317q-47 0 -74 -17.5t-50 -63.5zM1219 812h597l-224 198q-86 76 -181 76h-192v-274zM2053 419q96 0 150 -62q56 -69 56 -143q0 -89 -60.5 -150.5t-145.5 -61.5
q-86 0 -150 61q-62 65 -62 151q0 84 61.5 144.5t150.5 60.5zM2053 107q41 0 70 32t29 75q0 45 -31 74q-19 32 -68 32q-46 0 -76 -31.5t-30 -74.5q0 -47 31 -75q32 -32 75 -32zM2283 892q-20 0 -31 20q-28 50 -28 86t28 88q23 36 23 62.5t-23 68.5q-9 13 -5.5 30t17.5 25
q15 5 30 0t20 -18q38 -57 38 -104t-38 -108q-14 -28 -14 -44.5t14 -49.5q19 -26 -11 -49q-7 -7 -20 -7zM2458 892q-26 0 -31 20q-33 37 -33 64.5t33 65.5q18 23 18 34t-18 34q-9 11 -6.5 25.5t11.5 25.5q10 12 25 10t25 -17q42 -42 42 -79t-42 -83q-3 -6 -6 -10.5t-5 -5.5
l-2 -2q7 -6 13 -19q20 -29 0 -56q-13 -7 -24 -7z" />
    <glyph glyph-name="s" unicode="s" horiz-adv-x="2019" 
d="M1901 975q0 -47 -30 -78t-73 -31h-6l37 -83q15 -42 25.5 -106t10.5 -110v-438q0 -57 -36.5 -93t-91.5 -36q-56 0 -93.5 36t-37.5 93v71h-1200v-71q0 -57 -39 -93t-94 -36q-56 0 -93 36t-37 93v438q0 49 11.5 112t30.5 104l31 83h-11q-39 0 -68 31.5t-29 77.5
q0 41 29 68.5t68 27.5h88l92 233q16 43 59.5 85t85.5 54q17 5 52 11.5t158 18t265 11.5q141 0 259.5 -10t165.5 -20l48 -11q45 -12 89 -53.5t61 -85.5l87 -233h83q43 0 73 -27t30 -69zM397 938q-9 -32 25 -32h1159q19 0 26 8t-1 24l-132 329q-4 15 -20 26t-32 11h-835
q-19 0 -33.5 -10.5t-18.5 -26.5zM397 474q42 0 69.5 30t27.5 73t-27.5 73t-69.5 30q-43 0 -73.5 -30t-30.5 -73t30.5 -73t73.5 -30zM1612 474q43 0 73 30t30 73t-30 73t-73 30q-42 0 -72.5 -30t-30.5 -73t30.5 -73t72.5 -30z" />
    <glyph glyph-name="t" unicode="t" horiz-adv-x="1126" 
d="M416 513l93 -356l-18 -65q0 -6 -5 -11.5t-13 -5.5q-18 0 -25 10l-132 154l-192 -68q-13 -7 -18 0h-7q-11 7 -11 32l53 210l50 190q19 -11 57.5 -21.5t42.5 -11.5q21 -4 50 -14q4 -1 43 -25q23 -15 32 -18zM1037 121q0 -12 -11 -29l-7 -3q-6 -8 -21 0l-189 71l-136 -157
q-9 -7 -21 -7q-25 9 -25 21l-61 239l-61 222q5 0 14 -3.5t15 -3.5q15 0 30.5 3t26.5 6.5t27 11.5t23.5 12t24 14t21.5 13q19 19 40 25q48 14 50 14q4 1 28.5 7.5t35.5 10t30 12.5t34 20l14 -67l50 -193zM998 1024q0 -33 -36.5 -90t-42.5 -71q-6 -17 -13 -56t-17 -68.5
t-27 -46.5q-25 -21 -90.5 -36.5t-77.5 -20.5q-5 -2 -65.5 -40.5t-94.5 -38.5q-36 0 -94.5 37t-69.5 42q-14 6 -77.5 21t-86.5 36q-19 17 -29.5 46.5t-18 69t-13.5 55.5q-6 14 -40.5 71t-34.5 90q0 35 34.5 91t40.5 73q6 15 13 51.5t18 66t30 46.5q22 25 85.5 39t78.5 22
q17 6 73 40.5t91 34.5q33 0 90 -35t70 -40q16 -7 79.5 -21.5t88.5 -39.5q23 -23 39 -91t18 -73q7 -17 43 -73t36 -91zM812 1024q0 115 -81.5 196.5t-196.5 81.5q-118 0 -202 -81.5t-84 -196.5q0 -117 84 -199.5t202 -82.5q115 0 196.5 82.5t81.5 199.5zM534 1234
q89 0 151.5 -61t62.5 -149q0 -91 -62.5 -152.5t-151.5 -61.5q-90 0 -154 62t-64 152q0 87 64.5 148.5t153.5 61.5z" />
    <glyph glyph-name="u" unicode="u" horiz-adv-x="2069" 
d="M109 990q20 110 82 198t149 143t194 91t220 48t225.5 8.5t211.5 -23t176 -50.5q62 9 130.5 11t164.5 -12.5t173 -48.5q15 -7 18.5 -16.5t0 -18.5t-12.5 -24q-32 -58 -67.5 -95t-95.5 -72q4 -5 20 -25.5t20.5 -26.5t16.5 -23.5t16 -27.5t12 -27.5t12 -34.5t7 -38
q16 -68 49 -93q29 -25 84 -44q35 -8 44.5 -22.5t9.5 -47.5q0 -78 -44 -173q-19 -43 -50 -74q-27 -27 -63 -44q-60 -20 -119 -20q-54 -75 -99 -119.5t-113 -82.5q-10 -66 4 -203h-231q-23 0 -35.5 6.5t-23.5 24.5q-12 14 -32.5 54t-22.5 44q-74 -8 -185 -6t-185 15
q0 -63 15 -138h-232q-40 0 -75 40q-140 168 -187 235q-177 247 -196 483q-9 112 14 229zM987 1024q35 0 89 -9q35 -14 74 -14q2 7 9.5 21.5t10.5 22.5q4 10 4 29v20q-4 5 -9 14q-2 0 -10.5 5t-14.5 5q-5 5 -10 7.5t-16 4.5t-13 3l-24 8t-20 7q-15 6 -36 6v83q0 9 -2 18.5
t-2 11.5q-18 9 -35 9q-30 0 -44 -4q-5 -2 -12.5 -3.5t-11 -3t-6.5 -4.5q-16 -6 -19 -14v-20v-79q-50 -12 -65 -19q-4 -2 -14.5 -8t-17 -9.5t-14.5 -9.5t-13 -13q-15 -11 -44 -59q-15 -38 -15 -84q0 -52 24 -98q27 -43 55 -59q21 -22 69 -40q45 -16 74 -30q11 -4 20.5 -10.5
t19.5 -14l14 -10.5q20 -13 20 -54q0 -30 -20 -49q-20 -20 -68 -20q-30 0 -90 10q-18 2 -50 12t-48 13q-13 -26 -20 -44q0 -9 -2.5 -19t-2.5 -12q0 -5 2.5 -11.5t2.5 -7.5q0 -4 9 -15q1 -1 6 -5.5t10 -7t9 -2.5q12 -8 45 -19q10 -4 49 -16q10 0 27 -2t28 -2v-128l132 4
l-4 128q11 2 74 25q31 15 49 40q19 10 40 59q1 5 5.5 24t7 34t2.5 31q0 57 -25 99q-15 24 -54 63q-50 30 -74 40q-50 20 -69 30q-43 17 -55 35q-25 11 -25 44q0 25 25 44q19 19 69 19z" />
    <glyph glyph-name="v" unicode="v" horiz-adv-x="2604" 
d="M2355 1485q43 0 77.5 -31.5t34.5 -72.5v-1267q0 -46 -34.5 -79t-77.5 -33h-2122q-43 0 -77 33t-34 79v1267q0 41 34 72.5t77 31.5h2122zM633 947v71h-64q-80 0 -120 -39t-40 -101v-295h77v223h104v72h-104v0q0 27 22 48t61 21h64zM730 583v435l-77 -16v-419h77zM1031 548
v288v42l-83 -22v-139q0 -24 -12.5 -40.5t-36.5 -16.5q-26 0 -41 16.5t-15 40.5v161l-71 -22v-139q0 -59 35 -96.5t92 -37.5q19 0 49 15v-50q0 -63 -42 -63h-21v-77h21q57 0 91 38.5t34 101.5zM1206 583q57 0 95.5 44t38.5 102q0 63 -38.5 106t-95.5 43q-11 0 -30.5 -4.5
t-25.5 -4.5v149l-83 -16v-273q0 -58 41 -102t98 -44zM1634 717v161l-85 -22v-139q0 -57 -48 -57q-49 0 -49 57v161l-77 -22v-139q0 -59 34.5 -96.5t91.5 -37.5q61 0 97 37.5t36 96.5zM1935 836v42l-77 -22v-139q0 -23 -15.5 -40t-40.5 -17q-26 0 -41.5 16.5t-15.5 40.5v161
l-69 -22v-139q0 -59 34.5 -96.5t91.5 -37.5q15 0 56 15v-50q0 -33 -14.5 -48t-34.5 -15h-22v-77h22q57 0 91.5 38.5t34.5 101.5v288zM2187 618q22 35 22 63q0 19 -7.5 32.5t-24 23t-29 14t-35.5 11.5q-7 2 -10 3q-55 11 -55 27q0 12 9 21t25 9q35 0 35 -30h6l78 14
q-10 35 -44 53.5t-75 18.5q-47 0 -79 -26t-32 -60q0 -57 77 -75h6q69 -18 69 -44v-13q-19 -20 -33 -20q-42 0 -42 33l-85 -13q10 -36 46 -56.5t81 -20.5q48 0 97 35zM1269 729q0 28 -18.5 49.5t-44.5 21.5t-44 -21.5t-18 -49.5q0 -27 18 -48t44 -21t44.5 21t18.5 48z" />
    <glyph glyph-name="w" unicode="w" horiz-adv-x="2618" 
d="M1664 953l43 -252q7 -38 -25 -70l-291 -233q-15 -18 -43 -18h-102q-25 0 -43 18l-290 233q-35 25 -26 70l50 252h-768v-303v-214v-233q0 -85 60 -147t141 -62h1872q81 0 141 62t60 147v233v214v303h-779zM2022 1489q175 0 298 -124t123 -300v-18h-805l-45 233
q-4 24 -24.5 40.5t-44.5 16.5h-454q-24 0 -44 -16.5t-24 -40.5l-46 -233h-787v18q0 175 124 299.5t299 124.5h1430zM1404 883l13 -171q5 -2 2.5 -11t-2.5 -13h-19h-182q-21 0 -26 5q-6 8 -6 19l32 171q-23 18 -37 48.5t-14 59.5q0 60 41.5 102.5t102.5 42.5t100.5 -42
t39.5 -103q0 -29 -12.5 -59t-32.5 -49z" />
    <glyph glyph-name="x" unicode="x" horiz-adv-x="1820" 
d="M1386 1245v-119h-95v98h-150h-11v7v157h-616v-262h-98v262q0 42 28 70t70 28h630q24 0 28 -14l207 -199q7 -11 7 -28zM1680 933v-500q0 -40 -28 -67.5t-70 -27.5h-196v-241q0 -40 -28 -69t-67 -29h-777q-41 0 -69.5 29t-28.5 69v241h-192q-42 0 -70 27.5t-28 67.5v500
q0 38 28.5 66.5t69.5 28.5h1358q41 0 69.5 -28.5t28.5 -66.5zM416 832q0 37 -25.5 60.5t-65.5 23.5q-39 0 -65 -23.5t-26 -60.5q0 -40 26 -65.5t65 -25.5q40 0 65.5 25.5t25.5 65.5zM1291 97v532h-777v-532h777zM609 338h490v-98h-490v98zM609 534h584v-101h-584v101z" />
    <glyph glyph-name="y" unicode="y" horiz-adv-x="1706" 
d="M1458 684q62 0 105.5 -44t43.5 -105v-150v-98v-139q0 -65 -43.5 -107.5t-105.5 -42.5h-1213q-63 0 -106.5 42.5t-43.5 107.5v154v139v94q0 61 44 105t106 44h341l180 -175q35 -37 88 -37q47 0 82 37l181 175h341zM1323 1030q24 0 30 -11t-9 -30l-444 -439
q-22 -15 -46 -15q-32 0 -46 15l-445 439q-20 19 -15.5 30t31.5 11h196q27 0 44.5 19.5t17.5 47.5v330v62h67h294h68v-62v-330q0 -28 17.5 -47.5t43.5 -19.5h196z" />
    <glyph glyph-name="z" unicode="z" horiz-adv-x="1642" 
d="M811 1481q202 2 373.5 -95.5t272.5 -266t103 -368.5t-95.5 -371t-266 -272.5t-368.5 -105.5q-151 -1 -288.5 56t-237.5 155t-160 233.5t-63 285.5q-1 151 56 288.5t155 237.5t233.5 160t285.5 63zM815 1403q-159 0 -301 -74l106 -172q102 51 202 51q113 -6 203 -51
l102 172q-147 80 -312 74zM405 537q-47 94 -47 203q0 106 47 206l-172 102q-80 -159 -74 -316q0 -162 74 -297zM834 76q145 0 293 74l-102 176q-102 -51 -203 -51q-100 0 -202 51l-106 -176q142 -74 320 -74zM822 357q158 -3 272.5 111t114.5 275t-113 274t-274 113
t-273.5 -113t-112.5 -274t113 -273.5t273 -112.5zM1240 537l172 -102q80 147 74 316q0 155 -74 297l-172 -102q47 -115 47 -206q0 -95 -47 -203z" />
  </font>
</defs>
</svg>
